<svg width="223" height="18" viewBox="0 0 223 18" fill="none" xmlns="http://www.w3.org/2000/svg">
<path d="M103.4 0L89.1382 17.2464C89.3066 17.0725 97.7011 17.3043 102.923 17.2464L110.419 8.17391L103.4 0Z" fill="#ED1C24"/>
<path d="M21.4213 7.5073C21.4213 4.92759 19.2875 3.27542 12.9987 3.27542H0V18.0001H2.38638V12.116H14.5148C18.1926 12.116 18.9506 13.1595 18.9506 14.9566V18.0001H21.337V14.9566C21.337 13.1015 20.8036 11.3624 17.575 11.0725V11.0145C20.4105 10.7247 21.4213 9.36238 21.4213 7.5073ZM14.4025 10.3479H2.38638V5.33339H12.9987C17.6592 5.33339 19.1191 6.28991 19.1191 7.79716C19.1191 9.36238 17.603 10.3479 14.4025 10.3479Z" fill="white"/>
<path d="M33.8584 11.5073H46.801V9.7102H33.8584V5.33339H49.8331V3.27542H31.472V18.0001H50.1419V15.9421H33.8584V11.5073Z" fill="white"/>
<path d="M69.2611 3.27542H59.6594V18.0001H70.0472C78.1047 18.0001 81.2211 15.2754 81.2211 10.6377C81.2211 6.75368 78.3855 3.27542 69.2611 3.27542ZM69.963 15.9421H62.0458V5.33339H69.2892C76.6168 5.33339 78.8628 7.65223 78.8628 10.6377C78.8347 14.6377 75.5499 15.9421 69.963 15.9421Z" fill="white"/>
<path d="M161.094 11.4782V11.6232C161.094 13.5942 158.371 15.4782 152.195 15.4782C145.036 15.4782 142.453 12.7536 142.453 9.91303C142.453 6.63766 145.737 4.26085 152.082 4.26085C158.652 4.26085 160.898 6.55071 160.898 8.1739V8.26085H163.088C163.116 8.11592 163.116 7.99998 163.116 7.971C163.116 5.65216 160.336 2.20288 151.998 2.20288C144.109 2.20288 140.066 5.73911 140.066 9.91303C140.066 13.5942 143.126 17.5362 152.167 17.5362C160.028 17.5362 163.284 14.4058 163.284 11.7971C163.284 11.7681 163.284 11.6522 163.256 11.5072H161.094V11.4782Z" fill="#ED1C24"/>
<path d="M194.279 6.75358C194.279 4.17387 192.145 2.5217 185.857 2.5217H172.858V17.2463H175.244V11.3623H187.373C191.051 11.3623 191.809 12.4058 191.809 14.2029V17.2463H194.195V14.2029C194.195 12.3478 193.661 10.6087 190.433 10.3188V10.2608C193.297 9.97097 194.279 8.57967 194.279 6.75358ZM187.26 9.56518H175.244V4.57967H185.857C190.517 4.57967 191.977 5.53619 191.977 7.04344C191.977 8.57967 190.461 9.56518 187.26 9.56518Z" fill="#ED1C24"/>
<path d="M206.716 15.1884V10.7246H219.659V8.9275H206.716V4.57967H222.719V2.5217H204.33V17.2463H223V15.1884H206.716Z" fill="#ED1C24"/>
<path d="M119.066 0.898529L116.708 3.73911H116.736L113.816 7.21737L105.562 17.2753C106.489 17.2753 107.05 17.2753 107.05 17.2753H108.342L111.233 13.7681H126.787L129.65 17.2753H132.851L121.312 3.5652L119.066 0.898529ZM112.637 11.971L118.954 4.3478H119.01L125.271 11.971H112.637Z" fill="#ED1C24"/>
</svg>
