<?xml version="1.0" encoding="UTF-8"?><svg width="250" height="259" viewBox="0 0 250 259" fill="none" xmlns="http://www.w3.org/2000/svg">
<path d="M193.252 154.26C237.487 192.601 187.722 -2.25673 129.479 60.35C71.2359 122.957 113.628 173.894 65.7064 154.26C17.7847 134.626 112.338 269.285 129.479 218.348C146.62 167.411 149.016 115.918 193.252 154.26Z" fill="url(#paint0_linear_1_3144)"/>
<path d="M178.597 86.6349C226.614 53.2576 99.0912 4.40256 72.099 125.171C45.1068 245.94 128.683 254.485 146.803 210.296C164.922 166.106 208.298 193.148 224.53 164.362C240.762 135.577 130.579 120.012 178.597 86.6349Z" fill="url(#paint1_linear_1_3144)"/>
<path d="M63.3475 143.565C5.27737 136.666 68.2498 257.842 168.588 185.413C268.926 112.985 212.078 51.1277 169.197 72.1594C126.317 93.191 111.815 44.1765 80.5698 54.9372C49.3241 65.698 121.418 150.463 63.3475 143.565Z" fill="url(#paint2_linear_1_3144)"/>
<defs>
<linearGradient id="paint0_linear_1_3144" x1="147.947" y1="230.647" x2="147.947" y2="21.5345" gradientUnits="userSpaceOnUse">
<stop stop-color="#3646D9"/>
<stop offset="1" stop-color="#C4C4C4" stop-opacity="0"/>
</linearGradient>
<linearGradient id="paint1_linear_1_3144" x1="230.529" y1="145.408" x2="54.8553" y2="100.241" gradientUnits="userSpaceOnUse">
<stop stop-color="#3646D9"/>
<stop offset="1" stop-color="#C4C4C4" stop-opacity="0"/>
</linearGradient>
<linearGradient id="paint2_linear_1_3144" x1="63.5038" y1="65.1351" x2="164.943" y2="215.506" gradientUnits="userSpaceOnUse">
<stop stop-color="#3646D9"/>
<stop offset="1" stop-color="#C4C4C4" stop-opacity="0"/>
</linearGradient>
</defs>
</svg>
