<?xml version="1.0" encoding="UTF-8"?><svg width="228" height="237" viewBox="0 0 228 237" fill="none" xmlns="http://www.w3.org/2000/svg">
<path d="M176.195 141.06C216.505 175.999 171.156 -1.56905 118.081 55.4826C65.0057 112.534 103.636 158.951 59.9669 141.06C16.2973 123.168 102.46 245.879 118.081 199.461C133.701 153.044 135.885 106.12 176.195 141.06Z" fill="url(#paint0_linear_1_3152)"/>
<path d="M162.841 79.4362C206.598 49.0205 90.3897 4.50041 65.7925 114.553C41.1954 224.606 117.356 232.393 133.868 192.124C150.38 151.856 189.906 176.498 204.698 150.267C219.49 124.036 119.084 109.852 162.841 79.4362Z" fill="url(#paint1_linear_1_3152)"/>
<path d="M57.818 131.314C4.90041 125.027 62.2852 235.451 153.72 169.449C245.155 103.447 193.351 47.0786 154.275 66.2441C115.2 85.4096 101.985 40.7442 73.5121 50.5501C45.0389 60.356 110.736 137.6 57.818 131.314Z" fill="url(#paint2_linear_1_3152)"/>
<defs>
<linearGradient id="paint0_linear_1_3152" x1="134.91" y1="210.669" x2="134.91" y2="20.1111" gradientUnits="userSpaceOnUse">
<stop stop-color="#DB23B3"/>
<stop offset="1" stop-color="#C4C4C4" stop-opacity="0"/>
</linearGradient>
<linearGradient id="paint1_linear_1_3152" x1="210.165" y1="132.994" x2="50.0789" y2="91.8352" gradientUnits="userSpaceOnUse">
<stop stop-color="#DB23B3"/>
<stop offset="1" stop-color="#C4C4C4" stop-opacity="0"/>
</linearGradient>
<linearGradient id="paint2_linear_1_3152" x1="57.9603" y1="59.8431" x2="150.399" y2="196.871" gradientUnits="userSpaceOnUse">
<stop stop-color="#DB23B3"/>
<stop offset="1" stop-color="#C4C4C4" stop-opacity="0"/>
</linearGradient>
</defs>
</svg>
