<?xml version="1.0" encoding="UTF-8"?><svg width="254" height="243" viewBox="0 0 254 243" fill="none" xmlns="http://www.w3.org/2000/svg">
<path d="M103.189 187.872C66.1177 230.996 255.215 181.879 194.165 125.547C133.114 69.215 83.7997 110.599 102.683 63.9676C121.566 17.3361 -8.87362 109.724 40.6774 126.174C90.2285 142.624 140.261 144.747 103.189 187.872Z" fill="url(#paint0_linear_1_3125)"/>
<path d="M168.826 173.368C201.441 219.882 248.395 95.8058 130.967 70.0635C13.5393 44.3212 5.56929 125.546 48.5695 142.972C91.5697 160.399 65.4718 202.644 93.4998 218.298C121.528 233.953 136.211 126.854 168.826 173.368Z" fill="url(#paint1_linear_1_3125)"/>
<path d="M113.063 61.6342C119.534 5.19454 2.06807 66.85 72.827 164.036C143.586 261.222 203.451 205.751 182.85 164.178C162.249 122.606 209.806 108.324 199.229 78.0131C188.651 47.7021 106.593 118.074 113.063 61.6342Z" fill="url(#paint2_linear_1_3125)"/>
<defs>
<linearGradient id="paint0_linear_1_3125" x1="28.8029" y1="144.164" x2="231.945" y2="143.334" gradientUnits="userSpaceOnUse">
<stop stop-color="#00FFF0"/>
<stop offset="1" stop-color="#C4C4C4" stop-opacity="0"/>
</linearGradient>
<linearGradient id="paint1_linear_1_3125" x1="111.937" y1="224.051" x2="155.117" y2="53.2132" gradientUnits="userSpaceOnUse">
<stop stop-color="#00FFF0"/>
<stop offset="1" stop-color="#C4C4C4" stop-opacity="0"/>
</linearGradient>
<linearGradient id="paint2_linear_1_3125" x1="189.254" y1="61.4748" x2="43.5792" y2="160.614" gradientUnits="userSpaceOnUse">
<stop stop-color="#00FFF0"/>
<stop offset="1" stop-color="#C4C4C4" stop-opacity="0"/>
</linearGradient>
</defs>
</svg>
